<svg xmlns="http://www.w3.org/2000/svg" viewBox="0 0 617 100" xmlns:xlink="http://www.w3.org/1999/xlink">
 <path fill="#ff5300" d="M143.72 49.28c0 12.17 9.09 20.29 20.11 20.29a32.22 32.22 0 0016.94-4.77v11.82c-2.29 1.42-9.17 4-16.85 4C146 80.59 131.81 67 131.81 49.28S146 18 163.92 18c7.68 0 14.56 2.56 16.85 4v11.75A32.32 32.32 0 00163.83 29c-11.02 0-20.11 8.11-20.11 20.28zM233.5 50v29.71h-11v-26.2c0-5.2-2.3-9.08-8.21-9.08-5.73 0-9.08 3.61-9.08 10.14v25.14h-11V15.32h11v27.61c.79-2 3.88-8.21 13.14-8.21 9.51 0 15.15 5.65 15.15 15.28zM293.31 70.45v9.26h-14.2a1.67 1.67 0 01-1.77-1.71v-7.9c-1.5 5.2-5.55 10.49-14 10.49-11.47 0-19.76-8.55-19.76-22.93 0-14.56 9.08-22.94 20.37-22.94 10.41 0 12.53 8.56 12.53 8.56v-7.67h11v34.84zm-16.5-12.7c0-8.29-4-13.5-10.58-13.5-6.35 0-11.2 4.68-11.2 13.41s4 13.41 10.67 13.41c6.79 0 11.11-4.41 11.11-13.32zM318.56 37.37v42.34h-11V44.87h-8v-9.26h17.28a1.67 1.67 0 011.72 1.76zm-.35-10.94H306.3V15.32h11.91zM331.41 35.61h10.85v7.85c.36-1.15 3-8.74 13.32-8.74 9.53 0 15.18 5.65 15.18 15.26v29.73h-11v-26.2c0-5.2-2.29-9.08-8.2-9.08-5.74 0-9.09 3.61-9.09 10.14v25.14h-11zM430.56 70.45v9.26h-14.2a1.67 1.67 0 01-1.77-1.71v-7.9c-1.5 5.2-5.55 10.49-14 10.49-11.47 0-19.76-8.55-19.76-22.93 0-14.56 9.08-22.94 20.38-22.94 10.41 0 12.52 8.56 12.52 8.56v-7.67h11v34.84zm-16.5-12.7c0-8.29-4-13.5-10.58-13.5-6.35 0-11.2 4.68-11.2 13.41s4.05 13.41 10.72 13.41c6.74 0 11.06-4.41 11.06-13.32zM453.06 18v61.71H442V24.58h-6.88v-9.26h15.26a2.65 2.65 0 012.68 2.68zM472.87 100h-11v-9.26H470c2.91 0 4.24-.88 5.29-3.53l3.27-8.29-16.98-43.31h12.26l10.32 31.13 10.68-31.13h12.26l-21.7 55.83c-2.29 5.91-6.09 8.56-12.53 8.56zM513.21 76.89V66.22c1.5 1 7.58 5 14.38 5 5.2 0 7.49-1.5 7.49-4.41 0-8.73-22.49-2.29-22.49-18.87 0-7.5 6.35-13.24 18-13.24 6.43 0 11 1.68 12.79 2.74V48c-2.21-1.42-6.62-4.24-12.62-4.24-5.2 0-7.14 1.59-7.14 4.06 0 7.14 22.4 2.2 22.4 18.44 0 8.82-7.32 14.37-18 14.37-7.02-.04-12.78-2.42-14.81-3.74zM572.4 37.37v42.34h-11V44.87h-8v-9.26h17.29a1.66 1.66 0 011.71 1.76zm-.35-10.94h-11.91V15.32h11.91zM584.19 76.89V66.22c1.49 1 7.58 5 14.37 5 5.21 0 7.5-1.5 7.5-4.41 0-8.73-22.49-2.29-22.49-18.87 0-7.5 6.35-13.24 18-13.24 6.44 0 11 1.68 12.79 2.74V48a22.85 22.85 0 00-12.61-4.24c-5.21 0-7.15 1.59-7.15 4.06 0 7.14 22.41 2.2 22.41 18.44 0 8.82-7.32 14.37-18 14.37-7.01-.04-12.8-2.42-14.82-3.74z">
 </path>
 <path fill="#ff5300" d="M50 0c1.12 0 2.39.14 2.39.14a28.31 28.31 0 00-6.48 15.92 33.76 33.76 0 00-27.86 28.59c-6.47.7-13.79 3.66-18 7.89C-.95 23.52 21.29 0 50 0zm7.2 87.18a27 27 0 01-4 .29 49.17 49.17 0 01-6.9-.57 51.83 51.83 0 01-7 12A50 50 0 011.72 62.82c4.51-5.35 14.93-8.45 21.4-8.45 13.8 0 21.12 7.32 23.66 18.73-8.31-2.25-13.24-6.9-16.48-13.8a16.68 16.68 0 00-5.91-1 16.83 16.83 0 00-5.35.85C22.7 73.1 36.22 83.52 52.69 83.52c15.21 0 21.68-7.74 21.68-7.74V63.94s-7.46 7.75-16.75 9.3A33.74 33.74 0 0028.9 44.65C31.29 32.82 40.3 26.2 52.55 26.2s22.11 8.87 22.11 8.87V23.38s-6.34-5.92-17.6-7.18c.28-5.2 3.66-11.69 7.32-14.09C79.72 6.9 94.51 19.86 98.73 38.73c0 0-6.76 6.76-19.43 6.76-10.42 0-17-5.21-20.7-14.36a17.28 17.28 0 00-6.05-1 15.4 15.4 0 00-5.63 1c4.08 14.65 17 24.5 31.4 24.5 14.08 0 21.68-6.47 21.68-6.47 0 29.29-22.39 50.28-49 50.84 3.1-3 5.49-9.58 6.2-12.82z">
 </path>
</svg>