<svg version="1.1" id="Layer_1" xmlns="http://www.w3.org/2000/svg" xmlns:xlink="http://www.w3.org/1999/xlink" x="0px" y="0px" viewBox="0 0 1059.2 400.4" style="enable-background:new 0 0 1059.2 400.4;" xml:space="preserve">
 <style type="text/css">
  .st0{fill:#FFFFFF;}
	.st1{fill:#92C039;}
 </style>
 <path class="st0" d="M29,383c-1.7-1.8-2.6-4.2-2.6-7.3v-24.6c0-2.8,0.9-5.1,2.6-7.1c1.7-1.9,4-2.9,6.9-2.9h10.2c11,0,18.4-3,22.2-9
	c3.8-6,5.7-14.8,5.7-26.4V100.1c0-3.1,0.9-5.5,2.8-7.3c1.8-1.8,4.1-2.7,6.7-2.7h34.6c2.9,0,5.2,0.9,6.9,2.7c1.7,1.8,2.6,4.2,2.6,7.3
	V307c0,25-6.4,44.3-19.3,58.1c-12.9,13.7-31.9,20.6-57.1,20.6H35.9C33,385.7,30.7,384.8,29,383z">
 </path>
 <path class="st0" d="M180.8,272.2c-13.6-15.4-20.4-36.6-20.4-63.6V100.3c0-2.8,0.9-5.1,2.7-6.7c1.8-1.7,4-2.5,6.6-2.5h34.7
	c2.6,0,4.8,0.9,6.6,2.7c1.8,1.8,2.7,4,2.7,6.6v106c0,31.6,13.7,47.4,41.3,47.4c13.4,0,24-4.2,31.8-12.7c7.8-8.5,11.8-20,11.8-34.7
	v-106c0-2.8,0.9-5.1,2.7-6.7c1.8-1.7,4-2.5,6.6-2.5H342c2.8,0,5.1,0.8,6.7,2.5c1.7,1.7,2.5,3.9,2.5,6.7v182c0,2.6-0.8,4.8-2.5,6.6
	c-1.7,1.8-3.9,2.7-6.7,2.7h-32c-2.6,0-4.8-0.9-6.6-2.7c-1.8-1.8-2.7-4-2.7-6.6v-15.8c-14.1,19.3-35.5,28.9-64,28.9
	C213.1,295.4,194.4,287.7,180.8,272.2z">
 </path>
 <path class="st0" d="M389.4,288.8c-1.8-1.8-2.7-4-2.7-6.6v-182c0-2.8,0.9-5.1,2.7-6.7c1.8-1.7,4-2.5,6.6-2.5h30.5
	c2.8,0,5.1,0.8,6.7,2.5c1.7,1.7,2.5,3.9,2.5,6.7v13.1c13.9-17.5,32.5-26.2,55.9-26.2c28.5,0,48.4,11.4,59.8,34.3
	c6.2-10.3,14.9-18.6,26.2-24.9c11.3-6.3,23.5-9.4,36.6-9.4c21.1,0,38.3,7.2,51.7,21.6c13.4,14.4,20,35.3,20,62.8v110.6
	c0,2.6-0.8,4.8-2.5,6.6c-1.7,1.8-3.9,2.7-6.7,2.7h-32c-2.6,0-4.8-0.9-6.6-2.7c-1.8-1.8-2.7-4-2.7-6.6V174.7
	c0-16.2-3.4-27.9-10.2-35.1c-6.8-7.2-15.7-10.8-26.8-10.8c-10,0-18.6,3.7-25.6,11c-7.1,7.3-10.6,19-10.6,34.9v107.6
	c0,2.6-0.8,4.8-2.5,6.6c-1.7,1.8-3.9,2.7-6.7,2.7h-32.4c-2.6,0-4.8-0.9-6.6-2.7c-1.8-1.8-2.7-4-2.7-6.6V174.7
	c0-15.9-3.5-27.6-10.4-34.9c-6.9-7.3-15.8-11-26.6-11c-10,0-18.6,3.7-25.6,11c-7.1,7.3-10.6,19-10.6,34.9v107.6
	c0,2.6-0.8,4.8-2.5,6.6c-1.7,1.8-3.9,2.7-6.7,2.7h-32.8C393.4,291.5,391.2,290.6,389.4,288.8z">
 </path>
 <path class="st1" d="M722.1,288.8c-1.8-1.8-2.7-4-2.7-6.6v-182c0-2.8,0.9-5.1,2.7-6.7c1.8-1.7,4-2.5,6.6-2.5h32.8
	c2.6,0,4.8,0.9,6.6,2.7c1.8,1.8,2.7,4,2.7,6.6v182c0,2.6-0.9,4.8-2.7,6.6c-1.8,1.8-4,2.7-6.6,2.7h-32.8
	C726,291.5,723.9,290.6,722.1,288.8z">
 </path>
 <path class="st0" d="M825,272.2c-16.5-15.4-25.3-36.7-26.6-64l-0.4-17l0.4-17c1.3-27,10.3-48.3,27-63.8c16.7-15.6,40-23.3,69.8-23.3
	c29.6,0,52.7,7.8,69.4,23.3c16.7,15.6,25.7,36.8,27,63.8c0.2,3.1,0.4,8.7,0.4,17c0,8.2-0.1,13.9-0.4,17c-1.3,27.2-10.2,48.6-26.6,64
	c-16.5,15.4-39.7,23.1-69.8,23.1C864.8,295.4,841.4,287.7,825,272.2z M926.6,243.7c7.3-8.5,11.2-20.9,11.8-37.4
	c0.3-2.6,0.4-7.6,0.4-15c0-7.5-0.1-12.5-0.4-15c-0.5-16.4-4.5-29-12-37.6c-7.5-8.6-17.9-12.9-31.2-12.9c-13.6,0-24.2,4.3-31.6,12.9
	c-7.5,8.6-11.4,21.1-12,37.6l-0.4,15l0.4,15c0.5,16.5,4.5,28.9,12,37.4c7.5,8.5,18,12.7,31.6,12.7
	C908.8,256.4,919.2,252.2,926.6,243.7z">
 </path>
 <path class="st1" d="M720.5,55.6c-1.8-1.8-2.7-4-2.7-6.6V20.9c0-2.8,0.9-5.1,2.7-6.9c1.8-1.8,4-2.7,6.6-2.7h35.5
	c2.8,0,5.1,0.9,6.9,2.7c1.8,1.8,2.7,4.1,2.7,6.9V49c0,2.6-1,4.8-2.9,6.6c-1.9,1.8-4.2,2.7-6.7,2.7h-35.5
	C724.5,58.3,722.3,57.4,720.5,55.6z">
 </path>
 <path class="st0" d="M75.9,55.6c-1.8-1.8-2.7-4-2.7-6.6V20.9c0-2.8,0.9-5.1,2.7-6.9c1.8-1.8,4-2.7,6.6-2.7h35.5
	c2.8,0,5.1,0.9,6.9,2.7c1.8,1.8,2.7,4.1,2.7,6.9V49c0,2.6-1,4.8-2.9,6.6c-1.9,1.8-4.2,2.7-6.7,2.7H82.5
	C79.9,58.3,77.7,57.4,75.9,55.6z">
 </path>
 <g>
  <path class="st0" d="M1013.8,256.2c10.2,0,18.1,7.9,18.1,17.9c0,10.3-7.9,18.2-18.2,18.2c-10.3,0-18.4-7.9-18.4-18.2
		c0-10,8.1-17.9,18.4-17.9H1013.8z M1013.6,259.3c-8.1,0-14.3,6.7-14.3,14.8c0,8.3,6.2,14.9,14.6,14.9c8,0.1,14.1-6.5,14.1-14.8
		s-6.1-14.9-14.2-14.9H1013.6z M1010.4,284h-3.5v-18.8c1.9-0.3,3.9-0.6,6.5-0.6c3.2,0,4.7,0.6,5.9,1.5c1.1,0.8,1.9,2.3,1.9,4.1
		c0,2.3-1.7,3.7-3.6,4.4v0.2c1.6,0.7,2.5,2.1,3,4.6c0.6,2.8,1,3.9,1.5,4.6h-3.6c-0.6-0.7-1-2.4-1.6-4.9c-0.5-2.1-1.7-3-4.3-3h-2.3
		V284z M1010.4,273.4h2.4c2.5,0,4.9-0.8,4.9-2.9c0-1.8-1.2-3.2-4.5-3.2c-1.4,0-2.1,0.1-2.7,0.2V273.4z">
  </path>
 </g>
</svg>