<svg version="1.1" id="a" xmlns:x="ns_extend;" xmlns:i="ns_ai;" xmlns:graph="ns_graphs;" xmlns="http://www.w3.org/2000/svg" xmlns:xlink="http://www.w3.org/1999/xlink" x="0px" y="0px" viewBox="0 0 149.5 43" style="enable-background:new 0 0 149.5 43;" xml:space="preserve">
 <style type="text/css">
  .st0{fill:#FFFFFF;}
	.st1{fill:#00D37E;}
 </style>
 <metadata>
  <sfw xmlns="ns_sfw;">
   <slices>
   </slices>
   <sliceSourceBounds bottomLeftOrigin="true" height="43" width="149.5" x="675.3" y="193">
   </sliceSourceBounds>
  </sfw>
 </metadata>
 <g>
  <g id="b">
   <path class="st0" d="M45.4,41h1.3c0,0.5,0.5,0.9,1.1,0.9s1-0.3,1-0.8c0-0.4-0.3-0.6-0.8-0.8L47.2,40c-1.4-0.4-1.7-1.3-1.7-1.9
			c0-1.2,1-2,2.3-2s2.2,0.8,2.2,2h-1.3c0-0.5-0.3-0.8-0.9-0.8c-0.5,0-0.9,0.3-0.9,0.8c0,0.2,0,0.5,0.7,0.7l0.7,0.2
			c1,0.3,1.9,0.8,1.9,1.9c0,1.3-1.1,2-2.4,2C46.4,43,45.4,42.1,45.4,41L45.4,41z">
   </path>
   <path class="st0" d="M60.2,42.9h-1.4l-0.5-4.1l-1.6,3.3h-1l-1.6-3.3l-0.5,4.1h-1.4l0.8-6.6h1.1l2,4.3l2-4.3h1.1L60.2,42.9
			L60.2,42.9z">
   </path>
   <path class="st0" d="M66.9,42.9l-0.5-1.6h-2.5l-0.5,1.6h-1.4l2.5-6.6h1.4l2.5,6.6H66.9z M64.2,40.1h1.7l-0.8-2.5L64.2,40.1
			L64.2,40.1z">
   </path>
   <path class="st0" d="M73.6,42.9L72,40.5h-0.4v2.4h-1.3v-6.6h2.6c1.5,0,2.2,1.1,2.2,2.2c0,0.9-0.7,1.9-1.6,2l1.7,2.4H73.6
			L73.6,42.9z M71.6,37.4v2h1.1c0.7,0,1.1-0.4,1.1-1s-0.3-1-1-1H71.6L71.6,37.4z">
   </path>
   <path class="st0" d="M81.8,36.3v1.2H80v5.4h-1.3v-5.4h-1.8v-1.2H81.8L81.8,36.3z">
   </path>
   <path class="st0" d="M85.4,41.7h2.9v1.2h-4.2v-6.6h4.1v1.2h-2.8V39h2.5v1.2h-2.5V41.7L85.4,41.7z">
   </path>
   <path class="st0" d="M94.2,42.9l-1.6-2.4h-0.4v2.4h-1.3v-6.6h2.6c1.5,0,2.2,1.1,2.2,2.2c0,0.9-0.7,1.9-1.6,2l1.7,2.4H94.2
			L94.2,42.9z M92.2,37.4v2h1.1c0.7,0,1.1-0.4,1.1-1s-0.3-1-1-1H92.2L92.2,37.4z">
   </path>
   <path class="st0" d="M105.7,36.3v1.2h-1.8v5.4h-1.3v-5.4h-1.8v-1.2H105.7z">
   </path>
   <path class="st0" d="M111.3,42.9l-1.6-2.4h-0.4v2.4H108v-6.6h2.6c1.5,0,2.2,1.1,2.2,2.2c0,0.9-0.7,1.9-1.6,2l1.7,2.4H111.3
			L111.3,42.9z M109.3,37.4v2h1.1c0.7,0,1.1-0.4,1.1-1s-0.3-1-1-1H109.3L109.3,37.4z">
   </path>
   <path class="st0" d="M119.4,42.9l-0.5-1.6h-2.5l-0.5,1.6h-1.4l2.5-6.6h1.4l2.5,6.6H119.4z M116.8,40.1h1.7l-0.8-2.5L116.8,40.1z">
   </path>
   <path class="st0" d="M125.4,36.3c1.9,0,3,1.4,3,3.3s-1.1,3.3-3,3.3h-2.6v-6.6H125.4z M125.4,41.7c1.1,0,1.7-1,1.7-2.1
			c0-1.1-0.6-2.1-1.7-2.1h-1.3v4.2L125.4,41.7L125.4,41.7z">
   </path>
   <path class="st0" d="M130.9,42.9v-6.6h1.3v6.6H130.9z">
   </path>
   <path class="st0" d="M138.7,36.3h1.3v6.6h-1.2l-2.4-4.1v4.1h-1.3v-6.6h1.2l2.4,4.1V36.3z">
   </path>
   <path class="st0" d="M142.5,39.6c0-1.9,1.5-3.4,3.4-3.4c1,0,1.9,0.4,2.4,1.1l-1,0.8c-0.4-0.4-0.9-0.6-1.5-0.6c-1.1,0-2,1-2,2.2
			s0.9,2.2,2.1,2.2c0.9,0,1.7-0.5,1.7-1.3h-1.9v-1.1h3.3c0,2.4-1.4,3.6-3.1,3.6C143.9,43,142.5,41.4,142.5,39.6L142.5,39.6z">
   </path>
  </g>
  <g id="c">
   <path class="st0" d="M54.3,9.4c-5.6,0-10.1,4.6-10.1,10.2s4.5,10.2,10.1,10.2s10.1-4.6,10.1-10.2S59.9,9.4,54.3,9.4z M54.3,25.3
			c-3.1,0-5.3-2.4-5.3-5.8s2.2-5.7,5.3-5.7s5.3,2.5,5.3,5.7S57.3,25.3,54.3,25.3L54.3,25.3z">
   </path>
   <polygon class="st0" points="101.1,9.7 101.1,19.4 94,9.7 89.5,9.7 89.5,29.4 94.5,29.4 94.5,19.6 101.8,29.4 106.2,29.4 
			106.2,9.7 		">
   </polygon>
   <path class="st0" d="M118.7,9.7h-8.3v19.8h8.3c5.4,0,9-4,9-9.8S124.1,9.7,118.7,9.7z M115.5,14.2h3.2c2.7,0,4,2.8,4,5.4
			s-1.2,5.4-4,5.4h-3.2V14.2L115.5,14.2z">
   </path>
   <path class="st0" d="M81.1,29.4h5.4L78.4,9.7l-2.5,0l-2.5,0l-8.1,19.8h5.4l1.6-4.5h7.1L81.1,29.4L81.1,29.4z M74,20.6l2-5.4l2,5.4
			H74L74,20.6z">
   </path>
   <path class="st0" d="M144.1,29.4h5.4l-8.1-19.8l-2.5,0l-2.5,0l-8.1,19.8h5.4l1.6-4.5h7.1L144.1,29.4L144.1,29.4z M137,20.6l2-5.4
			l2,5.4H137L137,20.6z">
   </path>
  </g>
  <polygon class="st0" points="8.5,26.4 2.9,26.4 0,15.4 5.6,15.4 	">
  </polygon>
  <polygon class="st1" points="32.5,16.9 26.9,16.9 31.4,0 37.1,0 	">
  </polygon>
  <polygon class="st1" points="21.2,8.5 16.4,26.3 13.7,36.7 19.2,36.7 19.3,36.7 26.8,8.5 	">
  </polygon>
  <polygon class="st0" points="14.6,19.5 9,19.5 13.5,36.7 13.6,36.7 19.2,36.7 	">
  </polygon>
 </g>
</svg>