<svg version="1.1" id="Layer_1" xmlns:x="ns_extend;" xmlns:i="ns_ai;" xmlns:graph="ns_graphs;" xmlns="http://www.w3.org/2000/svg" xmlns:xlink="http://www.w3.org/1999/xlink" x="0px" y="0px" viewBox="0 0 333.2 75" style="enable-background:new 0 0 333.2 75;" xml:space="preserve">
 <style type="text/css">
  .st0{fill-rule:evenodd;clip-rule:evenodd;fill:#FFFFFF;}
	.st1{opacity:0.5;fill-rule:evenodd;clip-rule:evenodd;fill:#FFFFFF;enable-background:new    ;}
 </style>
 <metadata>
  <sfw xmlns="ns_sfw;">
   <slices>
   </slices>
   <sliceSourceBounds bottomLeftOrigin="true" height="75" width="333.2" x="-327.5" y="-240.7">
   </sliceSourceBounds>
  </sfw>
 </metadata>
 <g>
  <path class="st0" d="M226.8,1.5c1-1,2.3-1.6,3.7-1.5c1.4,0,2.7,0.5,3.7,1.5c1,1,1.5,2.3,1.5,3.7c0,1.5-0.5,2.7-1.5,3.7
		c-1,1-2.3,1.6-3.7,1.5c-1.4,0-2.8-0.5-3.7-1.5c-1-1-1.6-2.3-1.5-3.7C225.3,3.8,225.8,2.6,226.8,1.5L226.8,1.5z M234,18.6h-6.9v41
		h6.9V18.6z M261.7,17.4c5.8,0,11.2,2.5,15.2,6.9V1.9h6.9v57.6h-6.9v-5.7c-3.9,4.4-9.4,6.9-15.2,6.9c-11.4,0-20.8-9.7-20.8-21.6
		S250.2,17.4,261.7,17.4L261.7,17.4z M262.1,54.1c8,0,14.5-6.8,14.5-15.1S270.1,24,262.1,24c-8,0-14.5,6.8-14.5,15.1
		S254.1,54.1,262.1,54.1z M290,39c0-11.9,9.7-21.6,21.6-21.6s21.6,9.7,21.6,21.6c0,11.9-9.7,21.6-21.6,21.6
		C299.7,60.7,290,50.9,290,39z M311.6,54.1c8,0,14.5-6.8,14.5-15.1S319.6,24,311.6,24c-8,0-14.5,6.8-14.5,15.1
		S303.5,54.1,311.6,54.1z M207.4,10.5v8.1h11.7V25h-11.7v34.6h-6.9V25h-7.7v-6.4h7.7v-8.2c0-5.4,4.4-9.8,9.8-9.8h8.8v6.3H211
		C209,6.8,207.4,8.5,207.4,10.5L207.4,10.5z M172.4,17.4c-6,0-10.6,2.4-13.2,7.1v-5.9h-6.9v41h6.9V38.2c0-4.3,1.1-7.8,3.2-10.4
		c2.1-2.6,5.1-3.8,8.8-3.8c3.1,0,5.7,1,7.5,3.1c1.8,2.1,2.8,5.2,2.8,9.3v23.1h6.9V35.1c0-5.8-1.4-10.3-4.2-13.3
		C181.5,19,177.3,17.4,172.4,17.4L172.4,17.4z M102.5,39c0-11.9,9.7-21.6,21.6-21.6s21.6,9.7,21.6,21.6c0,11.9-9.7,21.6-21.6,21.6
		C112.2,60.7,102.5,50.9,102.5,39L102.5,39z M124.1,54.1c8,0,14.5-6.8,14.5-15.1S132.1,24,124.1,24c-8,0-14.5,6.8-14.5,15.1
		S116.1,54.1,124.1,54.1z M51.9,37.1c0,7.4-6,13.4-13.4,13.4c0,0,0,0,0,0c-7.4,0-13.4-6-13.4-13.4c0,0,0,0,0,0
		c0-7.4,6-13.4,13.4-13.4c0,0,0,0,0,0C45.9,23.7,51.9,29.7,51.9,37.1C51.9,37.1,51.9,37.1,51.9,37.1L51.9,37.1z M18.8,64.9
		c0.7-0.5,1.5-1,2.2-1.5c11.4-6.8,25.6-6.8,36.9,0.1c0.4,0.2,0.4,0.9,0,1.1l-0.3,0.2c-0.6,0.4-1.2,0.8-1.8,1.2
		c-4,2.4-8.3,4.4-12.8,6c-3,1.1-6.1,2-9.4,2.7c-3.1,0.7-6.2-0.1-8.6-2.2c-2.3-1.9-4.4-4-6.4-6.2c-0.4-0.4-0.4-1,0-1.4
		C18.7,65,18.8,65,18.8,64.9z">
  </path>
  <path class="st1" d="M55.2,11.5c0.8-0.5,1.5-1,2.2-1.5c0.5-0.3,0.6-0.9,0.3-1.4c0,0-0.1-0.1-0.1-0.1c-2-2.2-4.2-4.2-6.4-6.2
		c-2.4-2-5.6-2.8-8.6-2.1c-3.2,0.7-6.4,1.6-9.4,2.7c-4.4,1.6-8.7,3.6-12.8,6c-0.6,0.4-1.2,0.8-1.8,1.2l-0.3,0.2
		c-0.4,0.3-0.4,0.9,0,1.1C29.7,18.4,43.9,18.4,55.2,11.5z M11.5,20.4c-0.5-0.8-1-1.5-1.5-2.3c-0.3-0.5-0.9-0.6-1.4-0.3
		c0,0-0.1,0.1-0.1,0.1c-2.2,2-4.2,4.2-6.2,6.4c-2,2.4-2.8,5.6-2.1,8.6c0.7,3.2,1.6,6.3,2.7,9.4c1.6,4.4,3.6,8.7,6,12.8
		c0.4,0.6,0.8,1.2,1.2,1.9l0.2,0.3c0.3,0.4,0.9,0.4,1.1,0C18.3,46.1,18.3,31.8,11.5,20.4z M65.6,57.6c-8.2-11.6-8.8-27.1-1.4-39.3
		c0.2-0.3,0.6-0.4,0.9-0.2c0.1,0.1,0.2,0.1,0.2,0.2l0.2,0.3c0.4,0.6,0.8,1.2,1.2,1.9c2.4,4.1,4.4,8.3,6,12.8c1.1,3.1,2,6.2,2.7,9.4
		c0.7,3.1-0.1,6.3-2.1,8.6c-1.9,2.3-4,4.4-6.1,6.4c-0.4,0.4-1,0.4-1.4,0C65.6,57.7,65.6,57.7,65.6,57.6z">
  </path>
 </g>
</svg>