<svg role="img" aria-labelledby="logo" viewBox="0 0 125 35" fill="none" xmlns="http://www.w3.org/2000/svg"><path fill="#ffffff" d="M39.897 8.304h7.005c3.785 0 6.317 2.208 6.317 5.654 0 2.185-1.156 3.931-2.948 4.78l3.39 6.552h-4.08l-2.903-5.703h-3.096v5.703h-3.69V8.304h.005Zm3.69 3.032v5.217h3.024c1.746 0 2.85-1.02 2.85-2.598 0-1.578-1.104-2.621-2.85-2.621h-3.025v.002ZM54.188 19.075c0-3.883 2.58-6.404 6.488-6.404 3.909 0 6.343 2.328 6.392 5.992 0 .366-.024.776-.099 1.165H57.8v.169c.074 1.77 1.229 2.839 2.974 2.839 1.403 0 2.385-.607 2.68-1.77h3.418c-.394 2.427-2.58 4.367-5.95 4.367-4.204 0-6.733-2.498-6.733-6.358h.001Zm9.39-1.481c-.247-1.529-1.305-2.378-2.877-2.378-1.573 0-2.631.898-2.826 2.378h5.703ZM77.084 12.819h3.467v12.473h-3.073l-.318-1.505c-.81.97-1.915 1.65-3.713 1.65-2.604 0-5.015-1.287-5.015-5.704v-6.916H71.9v6.454c0 2.232.74 3.325 2.459 3.325 1.72 0 2.727-1.236 2.727-3.543v-6.236h-.002l.002.002ZM82.602 9.333h3.466v3.493h2.877v2.889h-2.877v5.461c0 .874.345 1.237 1.229 1.237h1.793v2.886h-2.878c-2.41 0-3.612-1.187-3.612-3.565v-12.4l.002-.001ZM89.663 19.075c0-3.883 2.58-6.404 6.49-6.404s6.342 2.328 6.391 5.992c0 .366-.027.776-.099 1.165h-9.17v.169c.072 1.77 1.229 2.839 2.974 2.839 1.403 0 2.385-.607 2.683-1.77h3.415c-.394 2.427-2.58 4.367-5.948 4.367-4.204 0-6.736-2.498-6.736-6.358Zm9.392-1.481c-.247-1.529-1.305-2.378-2.877-2.378-1.573 0-2.631.898-2.826 2.378h5.703ZM111.779 12.817v3.108h-1.377c-2.066 0-2.85 1.358-2.85 3.252v6.115h-3.467V12.82h3.146l.321 1.866c.688-1.116 1.669-1.866 3.637-1.866h.59v-.002ZM115.626 21.142c.124 1.091 1.08 1.844 2.779 1.844 1.449 0 2.335-.461 2.335-1.334 0-1.019-.859-1.091-2.901-1.357-2.951-.34-5.237-.995-5.237-3.566 0-2.57 2.189-4.1 5.431-4.076 3.391 0 5.729 1.482 5.901 4.027h-3.319c-.097-.995-1.057-1.602-2.458-1.602-1.4 0-2.236.486-2.236 1.286 0 .947 1.082 1.044 2.902 1.262 2.902.29 5.311.947 5.311 3.762 0 2.474-2.36 4.052-5.753 4.052-3.392 0-5.898-1.628-6.048-4.294h3.294-.002v-.004h.001Z"/><path fill="#D64000" d="M29.392 4.563c.432.433.672 1.012.672 1.625a2.295 2.295 0 1 1-3.917-1.625 2.288 2.288 0 0 1 1.623-.673 2.28 2.28 0 0 1 1.622.673ZM4.57 29.43a2.301 2.301 0 0 1 0-3.248 2.277 2.277 0 0 1 1.624-.673c.614 0 1.19.238 1.622.673a2.303 2.303 0 0 1 0 3.248 2.278 2.278 0 0 1-1.622.673c-.612 0-1.19-.238-1.623-.673ZM22.061 4.742l-.016-.006a1.986 1.986 0 0 1-1.07-1.082 1.99 1.99 0 0 1 0-1.539A2.004 2.004 0 0 1 22.83.873a2.013 2.013 0 0 1 1.855 2.781 2.01 2.01 0 0 1-2.624 1.088ZM11.141 29.103c.26 0 .52.052.766.152a2.013 2.013 0 0 1 0 3.715 1.985 1.985 0 0 1-1.537 0 2.013 2.013 0 0 1 .77-3.87l.001.003ZM18.702 1.723c0 .924-.73 1.68-1.642 1.723h-.078a1.724 1.724 0 0 1 0-3.446c.947 0 1.72.776 1.72 1.725v-.002ZM15.258 32.277c0-.952.773-1.724 1.721-1.724.949 0 1.721.774 1.721 1.724S17.928 34 16.98 34a1.725 1.725 0 0 1-1.722-1.723ZM11.695 4.212a1.432 1.432 0 0 1-1.875-.778 1.438 1.438 0 0 1 1.324-1.987c.564 0 1.098.336 1.329.888.146.357.146.747 0 1.099a1.41 1.41 0 0 1-.778.778ZM22.266 29.786c.18-.074.365-.112.551-.112.186 0 .372.038.549.11.356.147.632.423.777.778.146.357.146.746 0 1.099a1.436 1.436 0 1 1-1.878-1.876v.001ZM7.003 5.39c.442.442.448 1.154.022 1.605L7 7.02a1.153 1.153 0 0 1-1.627 0 1.154 1.154 0 0 1 0-1.629c.224-.224.518-.336.813-.336.296 0 .59.112.814.336h.003ZM26.947 26.987a1.15 1.15 0 1 1-.002 0h.002ZM2.335 12.48a1.438 1.438 0 0 1 1.1-2.656 1.438 1.438 0 0 1 0 2.655 1.432 1.432 0 0 1-1.098 0h-.002ZM31.633 21.525c.356.146.631.422.777.778a1.434 1.434 0 0 1-1.876 1.876 1.413 1.413 0 0 1-.777-.779 1.434 1.434 0 0 1 1.876-1.875ZM0 17.009c0-.951.772-1.723 1.72-1.723.95 0 1.722.774 1.722 1.723 0 .95-.773 1.723-1.721 1.723A1.726 1.726 0 0 1 0 17.01ZM30.52 17.009c0-.951.773-1.723 1.722-1.723.948 0 1.721.774 1.721 1.723 0 .95-.773 1.723-1.721 1.723a1.725 1.725 0 0 1-1.721-1.723ZM1.019 23.615a2.014 2.014 0 0 1 1.087-2.627 1.985 1.985 0 0 1 1.537 0c.495.207.88.592 1.087 1.088a1.99 1.99 0 0 1 0 1.54 2.004 2.004 0 0 1-1.087 1.087 1.985 1.985 0 0 1-1.537 0 2.004 2.004 0 0 1-1.087-1.088ZM29.217 11.92a2.008 2.008 0 0 1 1.087-2.624 2.011 2.011 0 0 1 1.535 3.713 1.985 1.985 0 0 1-1.537 0 2.005 2.005 0 0 1-1.087-1.088h.002ZM21.864 21.888a1.614 1.614 0 1 0 2.281.001 1.622 1.622 0 0 0-2.281-.003v.002ZM8.416 16.023a1.279 1.279 0 0 1 .66-2.472 1.28 1.28 0 0 1-.661 2.473h.001ZM24.88 20.44a1.28 1.28 0 0 1 .603-2.49l.06.017a1.28 1.28 0 0 1-.662 2.47v.003ZM7.762 19.471a1.026 1.026 0 0 1 .666-1.238l.058-.016a1.023 1.023 0 0 1 1.15 1.503 1.031 1.031 0 0 1-.622.478 1.01 1.01 0 0 1-.777-.104 1.03 1.03 0 0 1-.477-.62l.002-.003ZM24.696 15.685l-.044-.027a1.026 1.026 0 0 1 .293-1.85 1.024 1.024 0 1 1-.248 1.876ZM11.525 23.532l-.03.03a.77.77 0 0 1-1.088-1.089.77.77 0 0 1 1.118 1.059ZM23.545 10.42a.768.768 0 0 1 0 1.09.77.77 0 1 1 .001-1.093v.002ZM15.66 24.726a1.024 1.024 0 1 1-.62-.476c.264.072.484.24.62.478v-.002ZM18.295 9.279a1.025 1.025 0 0 1 1.15-1.503 1.024 1.024 0 0 1-.53 1.98 1.012 1.012 0 0 1-.62-.477ZM19.832 24.136l.054.032a1.28 1.28 0 0 1-1.333 2.18 1.272 1.272 0 0 1-.596-.776c-.09-.33-.043-.675.127-.972a1.275 1.275 0 0 1 1.746-.467l.002.002v.001ZM15.105 9.998a1.282 1.282 0 0 1-1.564-.904 1.28 1.28 0 0 1 1.232-1.608 1.28 1.28 0 0 1 1.235.946 1.28 1.28 0 0 1-.903 1.566ZM10.955 12.567a1.61 1.61 0 1 0-.002-3.223 1.61 1.61 0 0 0 .002 3.223Z"/></svg>