<svg width="571" height="73" viewBox="0 0 571 73" fill="none" xmlns="http://www.w3.org/2000/svg">
<path d="M141.439 20.0839V10.0393H98.8154V20.0839H114.53V59.8351H125.939V20.0839H141.439ZM168.347 32.2657V20.9388C161.674 20.7251 158.014 24.1445 155.647 29.2737V21.5799H144.453V59.8351H155.647V45.7298C155.647 36.5401 160.167 32.2657 167.702 32.2657H168.347V32.2657ZM211.186 41.883C211.186 42.9515 211.186 43.5927 210.971 44.6613H183.416C184.493 49.5767 188.152 52.1413 193.103 52.1413C196.763 52.1413 199.561 51.0727 202.575 48.2944L209.033 53.8511C205.374 58.3391 199.992 60.9037 192.888 60.9037C181.048 60.9037 172.222 52.7825 172.222 41.2418V41.0281C172.222 30.1286 180.187 21.1525 191.812 21.1525C205.158 20.9388 211.186 30.9834 211.186 41.883V41.883ZM200.207 37.8224C199.561 32.9069 196.548 29.7011 191.812 29.7011C187.076 29.7011 184.062 32.9069 183.201 37.8224H200.207ZM255.531 60.0488V35.2578C255.531 26.4954 250.58 21.1525 242.185 21.1525C236.588 21.1525 233.143 24.1445 230.56 27.3503V22.0074H219.366V60.2625H230.56V38.8909C230.56 33.7617 233.359 31.1971 237.664 31.1971C241.969 31.1971 244.337 33.7617 244.337 38.8909V60.2625H255.531V60.0488ZM305.043 60.0488H293.849V54.4922C291.051 58.1254 287.391 60.69 281.579 60.69C272.322 60.69 263.712 53.6373 263.712 41.0281V40.8144C263.712 27.9914 272.322 21.1525 281.579 21.1525C287.607 21.1525 291.266 23.7171 293.849 26.9228V8.11581H305.043V60.0488ZM294.065 41.0281C294.065 34.6166 289.759 30.3423 284.593 30.3423C279.426 30.3423 274.906 34.4029 274.906 40.8144V41.0281C274.906 47.4396 279.426 51.5002 284.593 51.5002C289.544 51.5002 294.065 47.2259 294.065 41.0281ZM350.465 47.0121C350.465 39.5321 345.299 35.4715 333.244 33.1206C320.973 30.7697 317.96 27.564 317.96 22.2211V22.0074C317.96 16.8782 323.126 12.6039 330.66 12.6039C336.473 12.6039 341.209 14.0999 346.16 18.1605L348.528 15.1684C343.146 11.1078 338.195 9.18439 330.66 9.18439C320.973 9.18439 313.869 14.9547 313.869 22.2211V22.4348C313.869 29.9149 319.036 33.9755 331.521 36.54C343.361 38.8909 346.375 41.883 346.375 47.2259V47.4396C346.375 53.2099 340.993 57.2705 333.244 57.2705C325.494 57.2705 320.327 54.9196 314.515 49.7904L311.932 52.5688C318.175 57.9117 324.633 60.4763 333.028 60.4763C343.146 60.69 350.465 55.1334 350.465 47.0121V47.0121ZM400.192 41.883C400.192 53.6373 390.936 60.9037 381.679 60.9037C374.145 60.9037 369.194 56.8431 365.965 52.1413V71.3758H362.305V23.5034H365.965V31.6246C369.194 26.9228 374.145 22.6485 381.679 22.6485C390.72 22.6485 400.192 29.9149 400.192 41.883V41.883ZM396.102 41.883C396.102 32.2657 389.214 26.068 381.249 26.068C373.284 26.068 365.749 32.4794 365.749 41.6692V41.883C365.749 51.2865 373.284 57.4842 381.249 57.4842C389.429 57.4842 396.102 51.7139 396.102 41.883ZM416.122 14.0999V9.39811H411.602V14.0999H416.122ZM415.692 60.0488V23.5034H412.032V59.8351H415.692V60.0488ZM465.419 60.0488H461.759V51.9276C458.53 56.6294 453.579 60.9037 446.045 60.9037C436.788 60.9037 427.532 53.8511 427.532 41.883V41.6692C427.532 29.9149 436.788 22.6485 446.045 22.6485C453.579 22.6485 458.53 26.7091 461.759 31.4109V7.9021H465.419V60.0488V60.0488ZM461.975 41.883C461.975 32.4794 454.44 26.068 446.475 26.068C438.295 26.068 431.622 31.8383 431.622 41.6692V41.883C431.622 51.5002 438.51 57.4842 446.475 57.4842C454.44 57.4842 461.975 51.0727 461.975 41.883ZM480.488 43.1653C481.134 52.1413 488.022 57.4842 495.341 57.4842C501.154 57.4842 505.244 54.9196 508.473 51.7139L511.056 53.8511C507.181 57.9117 502.661 60.69 495.341 60.69C485.439 60.69 476.613 52.9962 476.613 41.6692V41.4555C476.613 30.9834 484.363 22.4348 494.696 22.4348C505.244 22.4348 512.132 30.7697 512.132 41.4555V42.9515H480.488V43.1653ZM480.488 40.1732H508.042C507.612 32.9069 503.091 26.068 494.48 26.068C486.946 25.8543 481.134 32.052 480.488 40.1732ZM543.131 26.9228V23.0759C535.597 22.8622 529.354 27.564 526.34 33.9755V23.5034H522.681V59.8351H526.34V44.875C526.34 33.1206 534.09 26.7091 542.701 26.7091H543.131V26.9228Z" fill="white"/>
<path d="M25.0934 22.7261L30.5001 35.8758M31 45.4391L25.5 58.8758M71.4978 63.2675C74.9836 63.2675 77.8158 60.4936 77.8158 57.0796C77.8158 53.6656 74.9836 50.8917 71.4978 50.8917C68.012 50.8917 65.1799 53.6656 65.1799 57.0796C65.1799 60.4936 68.2299 63.2675 71.4978 63.2675ZM8.31798 47.2643C11.8038 47.2643 14.636 44.4904 14.636 41.0764C14.636 37.6624 11.8038 34.8885 8.31798 34.8885C4.8322 34.8885 2 37.6624 2 41.0764C2.21786 44.4904 5.05006 47.2643 8.31798 47.2643ZM45.7902 30.1943C48.6224 30.1943 51.0189 27.8471 51.0189 25.0732C51.0189 22.2994 48.6224 19.9522 45.7902 19.9522C42.958 19.9522 40.5615 22.2994 40.5615 25.0732C40.5615 27.8471 42.7401 30.1943 45.7902 30.1943ZM50.9296 53.8121C53.7618 53.8121 56.1582 51.465 56.1582 48.6911C56.1582 45.9172 53.7618 43.5701 50.9296 43.5701C48.0974 43.5701 45.7009 45.9172 45.7009 48.6911C45.7009 51.6783 47.8795 53.8121 50.9296 53.8121ZM22.9147 22.9395C25.7469 22.9395 28.1434 20.5923 28.1434 17.8185C28.1434 15.0446 25.7469 12.6974 22.9147 12.6974C20.0825 12.6974 17.6861 15.0446 17.6861 17.8185C17.6861 20.8057 20.0825 22.9395 22.9147 22.9395ZM32.7185 45.7707C35.3328 45.7707 37.2936 43.6369 37.2936 41.0764C37.2936 38.5159 35.115 36.3822 32.7185 36.3822C30.1042 36.3822 28.1434 38.5159 28.1434 41.0764C28.1434 43.6369 30.1042 45.7707 32.7185 45.7707ZM22.9147 71.3758C26.4005 71.3758 29.2327 68.6019 29.2327 65.1879C29.2327 61.7739 26.4005 59 22.9147 59C19.429 59 16.5968 61.7739 16.5968 65.1879C16.5968 68.6019 19.429 71.3758 22.9147 71.3758ZM61 14.3759C64.4858 14.3759 67.318 11.602 67.318 8.18796C67.318 4.77395 64.4858 2.00006 61 2.00006C57.5142 2.00006 54.682 4.77395 54.682 8.18796C54.8999 11.602 57.7321 14.3759 61 14.3759Z" stroke="#5DD39E" stroke-width="2.45079"/>
<path d="M562 27C566.418 27 570 23.4183 570 19C570 14.5817 566.418 11 562 11C557.582 11 554 14.5817 554 19C554 23.4183 557.582 27 562 27Z" stroke="white" stroke-width="1.80791"/>
<path d="M561.512 18.2768C562.009 18.2768 562.371 18.1774 562.588 17.9876C562.805 17.8068 562.922 17.4994 562.922 17.0655C562.922 16.6407 562.805 16.3424 562.588 16.1525C562.371 15.9717 562.009 15.8814 561.512 15.8814H560.499V18.2768H561.512ZM560.499 19.9311V23.4565H558.095V14.1367H561.765C562.994 14.1367 563.889 14.3446 564.459 14.7604C565.037 15.1672 565.318 15.8181 565.318 16.713C565.318 17.3277 565.173 17.8339 564.875 18.2316C564.576 18.6203 564.133 18.9186 563.528 19.0994C563.862 19.1808 564.151 19.3525 564.414 19.6147C564.676 19.8768 564.938 20.2746 565.2 20.8169L566.511 23.4565H563.953L562.814 21.1424C562.588 20.6814 562.353 20.3559 562.118 20.1932C561.883 20.0215 561.566 19.9311 561.177 19.9311H560.499Z" fill="white"/>
</svg>
